# xmcd
#
# Track frame offsets:
#	150
#	15788
#	27872
#	49614
#	61937
#	76340
#	95913
#	117534
#	130811
#	164758
#	182161
#	197254
#	217952
#	231771
#	268057
#	279961
#	295321
#
# Disc length: 4104 seconds
#
# Revision: 1
# Processed by: cddbd v1.5.1PL0 Copyright (c) Steve Scherf et al.
# Submitted via: audiograbber 1.83.01
#
DISCID=ec100611
DTITLE=ZZ Top - 1980-04-15 - Pine Knob, Claskston, MI
DYEAR=1900
DGENRE=
TTITLE0=I Thank You
TTITLE1=Waitin' For The Bus
TTITLE2=Jesus Just Left Chicago
TTITLE3=Precious and Grace
TTITLE4=Francine
TTITLE5=I'm Bad, I'm Nationwide
TTITLE6=Manic Mechanic
TTITLE7=Heard It On The X
TTITLE8=Fool For Your Stockings
TTITLE9=Nasty Dogs and Funky Kings
TTITLE10=We're Barefootin' (Only Known Performance)
TTITLE11=Cheap Sunglasses
TTITLE12=Beer Drinkers and Hell Raisers
TTITLE13=La Grange - Sloppy Drunk - BBQ Medley
TTITLE14=She Loves My Automobile
TTITLE15=Hi-Fi Mama
TTITLE16=Tush
EXTD=
EXTT0=
EXTT1=
EXTT2=
EXTT3=
EXTT4=
EXTT5=
EXTT6=
EXTT7=
EXTT8=
EXTT9=
EXTT10=
EXTT11=
EXTT12=
EXTT13=
EXTT14=
EXTT15=
EXTT16=
PLAYORDER=
